<?xml version="1.0" encoding="UTF-8" standalone="no"?>
<svg
   xmlns:dc="http://purl.org/dc/elements/1.1/"
   xmlns:cc="http://creativecommons.org/ns#"
   xmlns:rdf="http://www.w3.org/1999/02/22-rdf-syntax-ns#"
   xmlns:svg="http://www.w3.org/2000/svg"
   xmlns="http://www.w3.org/2000/svg"
   xmlns:xlink="http://www.w3.org/1999/xlink"
   xmlns:sodipodi="http://sodipodi.sourceforge.net/DTD/sodipodi-0.dtd"
   xmlns:inkscape="http://www.inkscape.org/namespaces/inkscape"
   id="d6af144a-e925-4ddf-847c-b38e3205da29"
   data-name="Layer 1"
   width="903.77"
   height="557.14"
   viewBox="0 0 903.77 657.14"
   version="1.1"
   sodipodi:docname="eating.svg"
   inkscape:version="1.0.2 (e86c8708, 2021-01-15)">
  <metadata
     id="metadata231">
    <rdf:RDF>
      <cc:Work
         rdf:about="">
        <dc:format>image/svg+xml</dc:format>
        <dc:type
           rdf:resource="http://purl.org/dc/dcmitype/StillImage" />
      </cc:Work>
    </rdf:RDF>
  </metadata>
  <sodipodi:namedview
     pagecolor="#ffffff"
     bordercolor="#666666"
     borderopacity="1"
     objecttolerance="10"
     gridtolerance="10"
     guidetolerance="10"
     inkscape:pageopacity="0"
     inkscape:pageshadow="2"
     inkscape:window-width="1536"
     inkscape:window-height="845"
     id="namedview229"
     showgrid="false"
     inkscape:zoom="0.57970381"
     inkscape:cx="463.6005"
     inkscape:cy="378.34871"
     inkscape:window-x="0"
     inkscape:window-y="25"
     inkscape:window-maximized="0"
     inkscape:current-layer="d6af144a-e925-4ddf-847c-b38e3205da29"
     inkscape:document-rotation="0" />
  <defs
     id="defs18">
    <linearGradient
       id="a8b3c97d-e0d9-42bd-b729-a4d45980fc6b"
       x1="736"
       y1="734.18"
       x2="736"
       y2="307.18"
       gradientUnits="userSpaceOnUse">
      <stop
         offset="0"
         stop-color="gray"
         stop-opacity="0.25"
         id="stop10" />
      <stop
         offset="0.54"
         stop-color="gray"
         stop-opacity="0.12"
         id="stop12" />
      <stop
         offset="1"
         stop-color="gray"
         stop-opacity="0.1"
         id="stop14" />
    </linearGradient>
    <linearGradient
       id="b66fe85f-ad74-4eee-9789-144feaee2a7f"
       x1="381.42"
       y1="718.18"
       x2="381.42"
       y2="312.18"
       xlink:href="#a8b3c97d-e0d9-42bd-b729-a4d45980fc6b"
       gradientTransform="translate(-208.48566,-240.45629)" />
    <linearGradient
       inkscape:collect="always"
       xlink:href="#a8b3c97d-e0d9-42bd-b729-a4d45980fc6b"
       id="linearGradient1171"
       gradientUnits="userSpaceOnUse"
       x1="736"
       y1="734.18"
       x2="736"
       y2="307.18"
       gradientTransform="translate(-41.158831,-243.90633)" />
  </defs>
  <title
     id="title20">eating_together</title>
  <ellipse
     cx="68.119316"
     cy="551.17865"
     rx="45"
     ry="16"
     opacity="0.1"
     id="ellipse22" />
  <ellipse
     cx="833.97546"
     cy="518.6192"
     rx="45"
     ry="16"
     opacity="0.1"
     id="ellipse24" />
  <path
     d="m 514.84434,38.37832 c -68.48,19.64567 -142.71,20.55925 -211.66,2.06484 C 205.46434,14.239039 77.844342,7.5320392 30.554392,127.612 c -80.71,205.15426 84.409948,278.38171 84.409948,278.38171 0,0 115.28,19.1926 179.11,53.87147 90.67,49.25901 201.71,65.72572 306.31,42.62628 66.89,-14.77326 124.2201,-39.00909 140.6101,-78.66438 45.84,-110.90703 16.74,-177.56862 99.7,-206.81058 82.96,-29.24195 36.8,-137.571672 -22.2,-140.030172 -59,-2.45849 -198.0001,22.668651 -241.0001,-27.310818 -15.33,-17.74423 -38.78,-18.15274 -62.65,-11.29719 z"
     opacity="0.1"
     id="path26"
     style="stroke-width:0.861828" />
  <path
     d="m 837.33052,519.16431 c 0,0 12,-40.84 -2.26,-70.9 a 64.51,64.51 0 0 1 -5.22,-40.47 108.49,108.49 0 0 1 5.73,-19"
     fill="none"
     stroke="#535461"
     stroke-miterlimit="10"
     stroke-width="2"
     id="path28" />
  <path
     d="m 826.70052,369.80431 c 0,5 9.06,19.52 9.06,19.52 0,0 9.06,-14.51 9.06,-19.52 a 9.065,9.065 0 0 0 -18.13,0 z"
     fill="#6c63ff"
     id="path30"
     style="fill:#214c18;fill-opacity:1" />
  <path
     d="m 811.72052,397.53431 c 2.72,4.2 18.22,11.46 18.22,11.46 0,0 -0.28,-17.11 -3,-21.31 a 9.0604442,9.0604442 0 1 0 -15.21,9.85 z"
     fill="#6c63ff"
     id="path32"
     style="fill:#214c18;fill-opacity:1" />
  <path
     d="m 812.37052,444.90431 c 4.47,2.25 21.51,0.7 21.51,0.7 0,0 -8.88,-14.63 -13.35,-16.88 a 9.0606015,9.0606015 0 1 0 -8.16,16.18 z"
     fill="#6c63ff"
     id="path34"
     style="fill:#214c18;fill-opacity:1" />
  <path
     d="m 820.94052,480.64431 c 4,3 21.08,4.32 21.08,4.32 0,0 -6.28,-15.92 -10.3,-18.89 a 9.0621921,9.0621921 0 0 0 -10.78,14.57 z"
     fill="#6c63ff"
     id="path36"
     style="fill:#214c18;fill-opacity:1" />
  <path
     d="m 848.96052,409.96431 c -3.59,3.49 -20.32,7.1 -20.32,7.1 0,0 4.1,-16.61 7.69,-20.1 a 9.0625176,9.0625176 0 0 1 12.63,13 z"
     fill="#6c63ff"
     id="path38"
     style="fill:#214c18;fill-opacity:1" />
  <path
     d="m 858.45052,451.87431 c -4.47,2.25 -21.51,0.7 -21.51,0.7 0,0 8.88,-14.63 13.35,-16.83 a 9.0606015,9.0606015 0 0 1 8.16,16.18 z"
     fill="#6c63ff"
     id="path40"
     style="fill:#214c18;fill-opacity:1" />
  <path
     d="m 862.08052,493.88431 c -4,3 -21.08,4.32 -21.08,4.32 0,0 6.28,-15.92 10.3,-18.89 a 9.0621921,9.0621921 0 0 1 10.78,14.57 z"
     fill="#6c63ff"
     id="path42"
     style="fill:#214c18;fill-opacity:1" />
  <path
     d="m 69.864339,549.57371 c 0,0 25.69,-87.12 -4.8,-151.32 -12.8,-26.93 -17,-57.15 -11.13,-86.37 a 231.54,231.54 0 0 1 12.23,-40.54"
     fill="none"
     stroke="#535461"
     stroke-miterlimit="10"
     stroke-width="2"
     id="path44" />
  <path
     d="m 47.194339,230.79371 c 0,10.68 19.34,41.66 19.34,41.66 0,0 19.33,-31 19.33,-41.66 a 19.34,19.34 0 1 0 -38.68,0 z"
     fill="#6c63ff"
     id="path46"
     style="fill:#2e451d;fill-opacity:1" />
  <path
     d="m 15.224339,289.96371 c 5.81,9 38.88,24.46 38.88,24.46 0,0 -0.600001,-36.52 -6.41,-45.48 a 19.34,19.34 0 0 0 -32.47,21 z"
     fill="#6c63ff"
     id="path48"
     style="fill:#2e451d;fill-opacity:1" />
  <path
     d="m 16.614339,391.08371 c 9.54,4.81 45.91,1.49 45.91,1.49 0,0 -19,-31.22 -28.49,-36 a 19.342104,19.342104 0 0 0 -17.42,34.54 z"
     fill="#6c63ff"
     id="path50"
     style="fill:#2e451d;fill-opacity:1" />
  <path
     d="m 34.864339,467.35371 c 8.59,6.35 45,9.22 45,9.22 0,0 -13.4,-34 -22,-40.32 a 19.340437,19.340437 0 0 0 -23,31.1 z"
     fill="#6c63ff"
     id="path52"
     style="fill:#2e451d;fill-opacity:1" />
  <path
     d="m 94.714339,316.45371 c -7.66,7.44 -43.36,15.15 -43.36,15.15 0,0 8.74,-35.46 16.4,-42.9 a 19.358864,19.358864 0 0 1 27,27.75 z"
     fill="#6c63ff"
     id="path54"
     style="fill:#2e451d;fill-opacity:1" />
  <path
     d="m 114.96434,405.96371 c -9.54,4.81 -45.910001,1.49 -45.910001,1.49 0,0 19,-31.22 28.490003,-36 a 19.342104,19.342104 0 1 1 17.419998,34.54 z"
     fill="#6c63ff"
     id="path56"
     style="fill:#2e451d;fill-opacity:1" />
  <path
     d="m 122.71434,495.62371 c -8.59,6.35 -45.000001,9.22 -45.000001,9.22 0,0 13.4,-34 22.000002,-40.32 a 19.340437,19.340437 0 0 1 22.999999,31.1 z"
     fill="#6c63ff"
     id="path58"
     style="fill:#2e451d;fill-opacity:1" />
  <path
     d="m 318.77434,180.76371 -55.73,-7.22 c -2.26,-0.29 -4,-1.15 -3.94,-1.9 v 0 c 0.1,-0.75 2,-1.1 4.31,-0.77 l 55.61,8.05 c 1.53,0.22 2.69,0.8 2.62,1.31 v 0 c -0.07,0.48 -1.35,0.73 -2.87,0.53 z"
     fill="#6c63ff"
     id="path60"
     style="fill:#987862;fill-opacity:1" />
  <path
     d="m 319.12434,181.71371 -55.9,-5.78 c -2.27,-0.23 -4.2,0.19 -4.27,0.94 v 0 c -0.07,0.75 1.74,1.54 4,1.74 l 56,5 c 1.54,0.14 2.8,-0.16 2.85,-0.67 v 0 c 0.04,-0.54 -1.15,-1.07 -2.68,-1.23 z"
     fill="#6c63ff"
     id="path62"
     style="fill:#987862;fill-opacity:1" />
  <path
     d="m 570.31116,220.31367 55.72,-7.22 c 2.26,-0.29 4,-1.15 3.94,-1.9 v 0 c -0.1,-0.75 -2,-1.1 -4.31,-0.77 l -55.61,8.05 c -1.53,0.22 -2.69,0.8 -2.62,1.31 v 0 c 0.07,0.48 1.35,0.73 2.88,0.53 z"
     fill="#6c63ff"
     id="path64"
     style="fill:#987862;fill-opacity:1" />
  <path
     d="m 569.95116,221.26367 55.9,-5.78 c 2.27,-0.23 4.2,0.19 4.27,0.94 v 0 c 0.07,0.75 -1.74,1.54 -4,1.74 l -56,5 c -1.54,0.14 -2.8,-0.16 -2.85,-0.67 v 0 c -0.04,-0.54 1.15,-1.07 2.68,-1.23 z"
     fill="#6c63ff"
     id="path66"
     style="fill:#987862;fill-opacity:1" />
  <rect
     x="205.06433"
     y="283.61374"
     width="13.59"
     height="194.86"
     fill="#40414d"
     id="rect68" />
  <rect
     x="669.21118"
     y="280.1637"
     width="13.59"
     height="194.86"
     fill="#40414d"
     id="rect70" />
  <rect
     x="110.82434"
     y="387.44373"
     width="11.89"
     height="108.18"
     fill="#40414d"
     id="rect108" />
  <rect
     x="185.70433"
     y="384.56369"
     width="11.89"
     height="108.18"
     fill="#40414d"
     id="rect110" />
  <path
     d="m 207.11434,366.73371 c 0,7.22 -24.48,13.08 -54.68,13.08 -30.2,0 -53.489999,-5.85 -53.489999,-13.08 0,-7.23 23.289999,-13.08 53.489999,-13.08 30.2,0 54.68,5.89 54.68,13.08 z"
     fill="#f6c6cd"
     id="path112" />
  <path
     d="m 82.28434,366.72371 h 124.82 v 10.9 a 10.5,10.5 0 0 1 -10.5,10.5 h -96.32 a 18,18 0 0 1 -18,-18 z"
     fill="#40414d"
     id="path114" />
  <path
     d="m 80.117587,244.52428 2.575208,-0.58129 a 7,7 0 0 1 8.369511,5.2869 l 31.174034,138.10531 -3.90183,0.88074 a 12.66,12.66 0 0 1 -15.13686,-9.56173 L 74.81118,252.8982 a 7,7 0 0 1 5.306407,-8.37392 z"
     fill="#40414d"
     id="path116" />
  <rect
     x="-791.27118"
     y="-491.21362"
     width="11.89"
     height="108.18"
     transform="scale(-1)"
     fill="#40414d"
     id="rect118" />
  <rect
     x="-697.36115"
     y="-491.21362"
     width="11.89"
     height="108.18"
     transform="scale(-1)"
     fill="#40414d"
     id="rect120" />
  <path
     d="m 675.97116,365.20367 c 0,7.22 24.48,13.08 54.68,13.08 30.2,0 53.49,-5.85 53.49,-13.08 0,-7.23 -23.3,-13.11 -53.49,-13.11 -30.19,0 -54.68,5.89 -54.68,13.11 z"
     fill="#f6c6cd"
     id="path122" />
  <path
     d="m 782.78116,386.60367 h -96.32 a 10.5,10.5 0 0 1 -10.5,-10.5 v -10.9 h 124.82 v 3.4 a 18,18 0 0 1 -18,18 z"
     fill="#40414d"
     id="path124" />
  <path
     d="m 783.77858,383.80515 -3.90183,-0.88075 31.17844,-138.12482 a 7,7 0 0 1 8.36951,-5.28689 l 2.57521,0.58129 a 7,7 0 0 1 5.28689,8.36951 l -28.39087,125.77552 a 12.66,12.66 0 0 1 -15.11735,9.56614 z"
     fill="#40414d"
     id="path126" />
  <path
     d="m 788.01116,323.09367 3.51,-1.11 c 0,0 -6,-40.08 -5.94,-76 0,-1 0,-2.07 0,-3.1 0.07,-2.24 0.15,-4.46 0.26,-6.63 0.14,-2.78 0.17,-5.43 0.15,-8 0.33,-34.59 -13.3,-49.2 -13.3,-49.2 0,0 -16,-22.82 -25.59,-27.26 -0.83,-2.6 -1.78,-5.94 -2.62,-9.82 0.31,-0.21 0.61,-0.42 0.9,-0.64 a 129.45,129.45 0 0 0 11.35,-9.47 c 4.92,-4.61 9.64,-10.23 9.38,-16.57 a 12.16,12.16 0 0 0 -0.06,-1.85 c -0.91,-7.65001 -8.86,-13.41001 -12.07,-20.660011 -2.7,-6.09 -1.89,-12.870001 -4.25,-19.050001 -2.36,-6.179998 -10.6,-11.929998 -16.82,-8.679998 -2.29,1.2 -3.67,3.32 -5.58,4.93 -4.74,3.999998 -12.38,4.369998 -18.86,2.549998 -6.48,-1.819998 -8.4,-9.239998 -17.46,-9.259998 a 10.53,10.53 0 0 1 2.29,1.09 14.42,14.42 0 0 0 -2.29,-0.2 10,10 0 0 1 6.92,8.409998 6.92,6.92 0 0 1 -0.08,0.72 c -3.62,1.95 -8.38,0.84 -12.72,0.77 -4.34,-0.07 -9.28,2.12 -8.85,5.67 a 3.43,3.43 0 0 0 0,1.22 c 0.57,2.69 4.17,4.72 4.61,7.210001 0,0.07 0,0.13 0,0.2 a 74.76,74.76 0 0 1 -25.65,7.48 c -0.29,0 -0.16,0.35 0.26,0.86 h -0.26 c -1.63,0.17 9.77,9.180001 11.07,9.770001 4.76,2.16001 10.45,3.75001 15.49,5.41001 l 0.44,0.14 a 31.54,31.54 0 0 0 -2.57,12.49 c 0,15.4 11.07,28.34 26.06,32 2.8,3.27 5.74,6.86 8.42,10.43 h -0.19 c 0,0 -17.23,22.92 -16.68,57.15 a 100.05,100.05 0 0 0 0.68,12.84 c -11.08,-0.63 -34.89,-3.55 -53,-16.81 -24.43,-17.87 -51.68,-12.51 -46,-1.79 5.68,10.72 34.77,19.65 39.46,20.55 0.44,0.08 1.46,0.32 2.92,0.68 -5.78,1.09 -9.74,3 -9.5,5.57 0.47,4.91 25.37,20.55 40.4,21.44 9.93,0.59 21.88,3.65 31.31,6.34 0.91,20.55 -4.06,26.71 -4.06,26.71 0,0 1.48,0.91 3.93,2.2 l -1.05,3 c -6.1,3.52 -13.62,7.19 -20.46,8.67 a 112.38,112.38 0 0 0 -25.24,8.4 l -33.83,16.35 a 19.59,19.59 0 0 0 -11.2,15.39 c -0.74,6.93 1.35,15.59 12.67,22.46 0.7,5.63 4.14,12.2 13.17,18.22 17.5,11.64 63.49,46.51 69.75,51.27 0.12,8.51 -1,25.58 -11.5,28.24 -13.16,3.34 -2.57,16 8.07,15.5 a 13.94,13.94 0 0 0 7.91,0.58 c 11.28,-2.68 52.62,-17 55.44,-38.42 a 20.53,20.53 0 0 0 0.16,-2.8 18.68,18.68 0 0 0 -2.62,-10.41 18.74,18.74 0 0 1 1.07,3 c -3.42,-7.8 -11.75,-12.7 -18.23,-15.46 0,-0.07 0,-0.15 0,-0.22 -1,-0.39 -2,-0.71 -2.82,-1 a 8.39,8.39 0 0 0 -0.13,-1.73 l -64.83,-44.67 c 0,0 28.19,-23.23 57.32,-19.65 29.13,3.58 33.77,-1.71 33.77,-1.71 0,0 14.94,-14.21 16.44,-30.57 l 0.94,-0.25 c 0,0 -0.07,-1.03 -0.21,-2.92 z"
     fill="url(#a8b3c97d-e0d9-42bd-b729-a4d45980fc6b)"
     id="path128"
     style="fill:url(#linearGradient1171)" />
  <path
     d="m 708.84116,439.44367 c 0,0 2.65,29.17 -10.61,32.71 -13.26,3.54 -0.88,17.68 9.72,15 10.6,-2.68 49.51,-16.8 52.16,-38 2.65,-21.2 -26.52,-28.29 -26.52,-28.29 z"
     fill="#b8616e"
     id="path130" />
  <path
     d="m 708.84116,439.44367 c 0,0 2.65,29.17 -10.61,32.71 -13.26,3.54 -0.88,17.68 9.72,15 10.6,-2.68 49.51,-16.8 52.16,-38 2.65,-21.2 -26.52,-28.29 -26.52,-28.29 z"
     opacity="0.05"
     id="path132" />
  <path
     d="m 714.17116,440.32367 c 0,0 2.65,29.17 -10.61,32.71 -13.26,3.54 -0.88,17.68 9.72,15 10.6,-2.68 49.51,-16.8 52.16,-38 2.65,-21.2 -26.52,-28.29 -26.52,-28.29 z"
     fill="#b8616e"
     id="path134" />
  <path
     d="m 741.57116,422.64367 -24.73,18.57 c 0,0 0.11,1.26 0.18,3.27 9.34,-2.56 29.69,-9.36 30,-20 a 47.92,47.92 0 0 0 -5.45,-1.84 z"
     opacity="0.1"
     id="path136" />
  <rect
     x="715.49115"
     y="168.47368"
     width="10.61"
     height="7.96"
     fill="#f8bdc5"
     id="rect138" />
  <path
     d="m 715.94116,297.09367 c 0,0 -16.85,13.24 -30.69,16.38 a 102.16,102.16 0 0 0 -23.75,8.31 l -31.83,16.18 a 19.34,19.34 0 0 0 -10.54,15.23 c -0.91,9 2.71,20.84 24.31,27.88 l 68.07,56.58 21.22,-17.68 -72.49,-55.68 55.7,-34.48 z"
     fill="#758ac8"
     id="path140" />
  <path
     d="m 715.94116,297.09367 c 0,0 -16.85,13.24 -30.69,16.38 a 102.16,102.16 0 0 0 -23.75,8.31 l -31.83,16.18 a 19.34,19.34 0 0 0 -10.54,15.23 c -0.91,9 2.71,20.84 24.31,27.88 l 68.07,56.58 21.22,-17.68 -72.49,-55.68 55.7,-34.48 z"
     opacity="0.1"
     id="path142"
     style="opacity:0.688103;fill:#965e1d;fill-opacity:1" />
  <path
     d="m 706.21116,237.87367 c 0,0 -32.71,0.88 -55.7,-16.8 -22.99,-17.68 -48.62,-12.38 -43.32,-1.77 5.3,10.61 32.71,19.45 37.13,20.33 4.42,0.88 68.07,18.57 68.07,18.57 z"
     fill="#f8bdc5"
     id="path144" />
  <path
     d="m 706.21116,237.87367 c 0,0 -32.71,0.88 -55.7,-16.8 -22.99,-17.68 -48.62,-12.38 -43.32,-1.77 5.3,10.61 32.71,19.45 37.13,20.33 4.42,0.88 68.07,18.57 68.07,18.57 z"
     opacity="0.05"
     id="path146" />
  <path
     d="m 709.75116,289.15367 -10.61,31.83 c 0,0 -59.67,36.69 -64.54,41.55 -3.78,3.78 -8.84,18.57 8.84,30.94 17.68,12.37 66.3,51.28 66.3,51.28 0,0 37.13,-8 34.48,-23 l -61,-44.2 c 0,0 26.52,-23 53.93,-19.45 27.41,3.55 31.83,-1.77 31.83,-1.77 0,0 21.22,-21.24 14.14,-41.54 -7.08,-20.3 -73.37,-25.64 -73.37,-25.64 z"
     fill="#758ac8"
     id="path148"
     style="fill:#8e7363;fill-opacity:1" />
  <path
     d="m 696.49116,145.09367 c 0,0 30.06,32.71 28.29,42.43 -1.77,9.72 23.87,-28.29 23.87,-28.29 0,0 -8,-19.45 -6.19,-40.67 z"
     fill="#f8bdc5"
     id="path150" />
  <path
     d="m 722.72116,175.09367 a 87.88,87.88 0 0 1 6.47,-6.17 89.71,89.71 0 0 0 12.39,-12.37 c 6.19,-8 29.17,26.52 29.17,26.52 0,0 14.14,15.91 12.38,53.93 -1.76,38.02 2.21,88.85 2.21,88.85 l -5.35,1.49 a 30.63,30.63 0 0 1 -27.1,-3.85 c -7.06,-4.88 -16,-10 -22.8,-10.46 -13.26,-0.88 -25.2,-8.4 -25.2,-8.4 0,0 5.75,-13.7 -3.09,-57.91 -8.84,-44.21 13.69,-75.63 13.69,-75.63 0,0 1.78,9.62 7.23,4 z"
     opacity="0.1"
     id="path152" />
  <path
     d="m 788.43116,321.86367 -5.3,1.77 -3.15,1.05 a 30.62,30.62 0 0 1 -27.1,-3.85 c -7.05,-4.87 -16,-10 -22.8,-10.46 -13.24,-0.89 -28.24,-10.61 -28.24,-10.61 0,0 8.84,-11.49 0,-55.7 -8.84,-44.21 13.7,-75.59 13.7,-75.59 0,0 1.78,9.57 7.23,3.94 a 86.81,86.81 0 0 1 6.46,-6.16 89.71,89.71 0 0 0 12.39,-12.37 c 6.19,-8 29.17,26.52 29.17,26.52 0,0 14.14,15.91 12.38,53.93 -0.19,4 -0.27,8.12 -0.28,12.29 -0.13,35.58 5.54,75.24 5.54,75.24 z"
     fill="#5e52ad"
     id="path154"
     style="fill:#ffffff;fill-opacity:1" />
  <path
     d="m 738.04116,235.22367 0.88,19.45 c 0,0 -46.86,2.65 -56.58,-7.07 -9.72,-9.72 26.5,28.59 34.5,30.94 7.51,2.21 26.9,4.16 37.07,4.36 a 15,15 0 0 0 14,-8.49 14.15,14.15 0 0 0 1.1,-8.25 c -1.77,-11.49 0,-36.25 0,-36.25 z"
     opacity="0.1"
     id="path156" />
  <path
     d="m 738.04116,233.45367 0.88,19.45 c 0,0 -46.86,2.65 -56.58,-7.07 -9.72,-9.72 -44.89,-7.57 -44.2,0 0.44,4.86 23.87,20.33 38,21.22 14.13,0.89 32.7,7.37 40.7,9.72 7.51,2.21 26.9,4.16 37.07,4.36 a 15,15 0 0 0 14,-8.49 14.15,14.15 0 0 0 1.1,-8.25 c -1.77,-11.49 0,-36.25 0,-36.25 z"
     fill="#f8bdc5"
     id="path158" />
  <path
     d="m 748.65116,176.87367 c 0,0 -20.33,2.65 -17.68,32.71 2.65,30.06 6.19,32.71 6.19,32.71 0,0 30.06,-2.65 33.59,-3.54 3.53,-0.89 1.77,-33.59 1.77,-33.59 0,0 -0.89,-29.17 -23.87,-28.29 z"
     opacity="0.1"
     id="path160" />
  <path
     d="m 748.65116,175.99367 c 0,0 -20.33,2.65 -17.68,32.71 2.65,30.06 6.19,32.71 6.19,32.71 0,0 30.06,-2.65 33.59,-3.54 3.53,-0.89 1.77,-33.59 1.77,-33.59 0,0 -0.89,-29.19 -23.87,-28.29 z"
     fill="#5e52ad"
     id="path162"
     style="fill:#ffffff;fill-opacity:1" />
  <path
     d="m 741.13116,137.53367 c -1.39,-7 1.46,-9.16 2.21,-18.12 l -46,26.52 c 0,0 5.27,5.74 11.26,13.11 a 32.77,32.77 0 0 0 8.19,1 c 12.05,0.05 18.64,-12.89 24.34,-22.51 z"
     opacity="0.1"
     id="path164" />
  <circle
     cx="715.93115"
     cy="126.48367"
     r="32.709999"
     fill="#f8bdc5"
     id="circle166" />
  <path
     d="m 724.18116,116.55367 c -5,3.18 -5.07,10.37 -1.85,15.35 3.22,4.98 8.77,8.27 14.11,11.37 1.55,0.9 3.26,1.83 5,1.63 a 7.37,7.37 0 0 0 3.58,-1.81 123.46,123.46 0 0 0 10.68,-9.37 c 4.86,-4.78 9.53,-10.67 8.77,-17.34 -0.86,-7.57 -8.34,-13.27001 -11.36,-20.440011 -2.54,-6 -1.78,-12.730001 -4,-18.860001 -2.22,-6.129998 -10,-11.799998 -15.82,-8.589998 -2.15,1.18 -3.45,3.29 -5.25,4.879998 -4.46,3.94 -11.65,4.33 -17.75,2.53 -6.1,-1.8 -7.91,-9.149998 -16.42,-9.169998 4.23,1.49 7.09,5.899998 6.44,9.919998 -3.41,1.93 -7.89,0.83 -12,0.76 -4.11,-0.07 -9,2.23 -8.29,5.93 0.62,3.000001 4.95,5.230001 4.31,8.230001 a 67.76,67.76 0 0 1 -24.14,7.4 c -1.53,0.17 9.19,9.080001 10.41,9.670011 4.47,2.14 9.84,3.71 14.57,5.35 12.85,4.43 26.01,6.01 39.01,2.56 z"
     opacity="0.1"
     id="path168" />
  <path
     d="m 724.18116,115.66367 c -5,3.18 -5.07,10.37 -1.85,15.35 3.22,4.98 8.77,8.27 14.11,11.37 1.55,0.9 3.26,1.83 5,1.63 a 7.37,7.37 0 0 0 3.58,-1.81 123.46,123.46 0 0 0 10.68,-9.37 c 4.86,-4.78 9.53,-10.67 8.77,-17.34 -0.86,-7.57001 -8.34,-13.27001 -11.36,-20.440011 -2.54,-6 -1.78,-12.730001 -4,-18.860001 -2.22,-6.129998 -10,-11.799998 -15.82,-8.589998 -2.15,1.18 -3.45,3.29 -5.25,4.879998 -4.46,3.94 -11.65,4.33 -17.75,2.53 -6.1,-1.8 -7.91,-9.149998 -16.42,-9.169998 4.23,1.49 7.09,5.9 6.44,9.919998 -3.41,1.93 -7.89,0.83 -12,0.76 -4.11,-0.07 -9,2.23 -8.29,5.93 0.62,3 4.95,5.230001 4.31,8.230001 a 67.76,67.76 0 0 1 -24.14,7.4 c -1.53,0.17 9.19,9.080001 10.41,9.670001 4.47,2.14001 9.84,3.71001 14.57,5.35001 12.85,4.44 26.01,5.99 39.01,2.56 z"
     fill="#916168"
     id="path170" />
  <path
     d="m 763.13116,436.98367 a 19.51,19.51 0 0 1 1.43,10.41 c -2.65,21.22 -41.55,35.36 -52.16,38 -5.59,1.4 -11.68,-1.87 -14.23,-5.8 1.64,4.62 8.7,9.17 15.12,7.57 10.61,-2.65 49.51,-16.8 52.16,-38 a 19.41,19.41 0 0 0 -2.32,-12.18 z"
     fill="#ffffff"
     opacity="0.1"
     id="path172" />
  <path
     d="m 314.85434,464.54371 v 0 c -0.79,-1.78 -4.89,-5.25 -24.66,-6 -13.54,-0.51 -18.15,-7.66 -19.4,-14.64 4.45,-0.58 7.93,-1.38 9.07,-2.49 0,0 -0.06,-0.32 -0.16,-0.89 l 0.16,-0.12 a 93.7,93.7 0 0 1 -1.35,-15.24 58.64,58.64 0 0 1 1.38,-13 38.34,38.34 0 0 0 0.69,-8.57 c 0.11,-17 -5.86,-46.88 -5.86,-46.88 l -0.82,-24.83 a 17.25,17.25 0 0 0 -9.39,-14.9 14.13,14.13 0 0 0 -6.35,-1.58 c 0,0 -31.34,-4.94 -59.55,-7.63 -2,-1.61 -9.05,-5.95 -25.21,-3.46 l -9.3,-27.22 a 7.73,7.73 0 0 1 -0.16,-1 c 0.33,-3.46 2.64,-8.67 13.41,-9 l 2.25,2 c 0,0 0.4,-0.79 1.07,-2 13.36,-0.15 86.14,-0.89 89.89,0 4.13,1 40.31,-7.06 41.35,-8.06 14.06,-13.71 -41.35,-7.06 -41.35,-7.06 -5.45,0.89 -23.06,-0.17 -41.1,-1.64 8.93,-13.39 17.33,-58.84 17.33,-58.84 0,0 32,-16.13 22.74,-25.2 -9.26,-9.07 -37.21,20.16 -37.21,20.16 0,0 -11.37,33.27 -16.54,43.35 -2,4 -4.59,4.82 -6.9,4.36 1.05,-0.84 1.73,-1.34 1.73,-1.34 0,0 -22.74,-18.15 -24.81,-25.2 a 16.84,16.84 0 0 0 -1.52,-3.31 c -1.09,-6.39 -3,-12.68 -7.66,-16.87 a 17.33,17.33 0 0 0 -2.58,-2.27 c -1.26,-0.9 -2.69,-1.68 -3.88,-2.66 v 0 c 0.67,-3.08 1.45,-6.28 2.26,-9.38 16.88,-2 30,-16 30,-33 a 32.55,32.55 0 0 0 -0.91,-7.61 14.66,14.66 0 0 0 13,-6.26 c 3.41,-5.08 3.3,-12 0.44,-17.36 a 21.49,21.49 0 0 0 -4.58,-5.78001 27.09,27.09 0 0 0 -10.5,-6.560001 c -3.43,-1.19 -7.22,-1.9 -9.94,-4.23 a 44.09,44.09 0 0 1 -3.31,-5 25.59,25.59 0 0 0 -4,-4.660001 c -5,-5.15 -12.06,-8.32 -19.25,-9.72 -8.76,-1.709998 -17.81,-1.099998 -26.72,-0.49 -3.33,0.23 -7.24,0.82 -8.74,3.72 -1.13,2.18 -0.39,4.79 -0.54,7.22 -0.47,7.730001 -9.31,12.000001 -17,13.870001 -7.69,1.87 -16.860001,3.490001 -20.570001,10.270001 -3.37,6.12001 -1,13.54001 0.08,20.41001 a 49.93,49.93 0 0 1 -7.529999,34.59 c -3.38,5.17 -7.74,9.77 -10.41,15.32 a 29.21,29.21 0 0 0 -1.94,19.86 c 0.5,1.94 1.22,3.92 0.86,5.9 a 10.29,10.29 0 0 1 -2.34,4.39 53,53 0 0 1 -37.7,19.53 10.8,10.8 0 0 0 3.44,5.19 24.85,24.85 0 0 0 7.14,4.93 107.81,107.81 0 0 0 21.9,8.15 c 5.1,1.29 10.43,2.21 15.62,1.33 5.19,-0.88 10.249999,-3.85 12.379999,-8.55 1.24,-2.72 1.42,-5.8 2.52,-8.57 2.19,-5.54 7.620001,-9.13 11.290001,-13.88 a 347.08,347.08 0 0 0 -1.75,36.84 c 0,3.85 0,7.32 0,10.54 0,13.89 -1,23.47 -9.610001,40.82 a 10.36,10.36 0 0 0 -1.29,6 6.58,6.58 0 0 0 2.25,6.11 59.24,59.24 0 0 0 -0.87,10.48 c -0.12,12.64 4.150003,29.61 26.790001,33.91 l 40.31,-2 c 0,0 56.85,-11.09 72.35,-3 a 5.72,5.72 0 0 1 4.53,5.58 12.83,12.83 0 0 1 -0.39,2.49 39.15,39.15 0 0 0 -0.49,7.93 c -0.07,17 3.59,55.58 3.59,55.58 v 16.36 c -2.58,3.88 -5.76,9.62 -5.35,13.85 0,0.09 0,0.19 0,0.28 0,0.09 0,0.25 0.06,0.37 0.06,0.12 0,0.22 0.07,0.33 0.07,0.11 0.06,0.21 0.09,0.32 0.03,0.11 0.08,0.24 0.13,0.35 0.05,0.11 0.07,0.18 0.11,0.27 0.04,0.09 0.13,0.26 0.2,0.38 l 0.12,0.21 a 4.84,4.84 0 0 0 0.4,0.55 c 5.17,6 31,17.61 39.28,17.14 8.79,-0.5 38.24,1 39.28,-12.1 a 1.59,1.59 0 0 0 -0.07,-1.19 z"
     fill="url(#b66fe85f-ad74-4eee-9789-144feaee2a7f)"
     id="path174"
     style="fill:url(#b66fe85f-ad74-4eee-9789-144feaee2a7f)" />
  <path
     d="m 241.37434,439.22371 c 0,0 -12,15 -7,21 5,6 30,17.47 38,17 8.5,-0.5 37,1 38,-12 0,0 2,-6 -24,-7 -26,-1 -18,-28 -18,-28 z"
     fill="#594c76"
     id="path176" />
  <path
     d="m 98.374341,313.22371 c 0,0 -12.000002,41 23.999999,48 l 39,-2 c 0,0 55,-11 70,-3 0,0 6,1 4,9 -2,8 3,62 3,62 v 18 c 0,0 34,0 38,-4 0,0 -3,-16 0,-29 3,-13 -5,-54 -5,-54 l -0.79,-24.68 a 17.16,17.16 0 0 0 -9.06,-14.8 13.4,13.4 0 0 0 -6.14,-1.56 c 0,0 -68,-11 -92,-9 -24,2 -65.009999,5.04 -65.009999,5.04 z"
     opacity="0.1"
     id="path178" />
  <path
     d="m 98.374341,312.22371 c 0,0 -12.000002,41 23.999999,48 l 39,-2 c 0,0 55,-11 70,-3 0,0 6,1 4,9 -2,8 3,62 3,62 v 18 c 0,0 34,0 38,-4 0,0 -3,-16 0,-29 3,-13 -5,-54 -5,-54 l -0.79,-24.68 a 17.16,17.16 0 0 0 -9.06,-14.8 13.4,13.4 0 0 0 -6.14,-1.56 c 0,0 -68,-11 -92,-9 -24,2 -65.009999,5.04 -65.009999,5.04 z"
     fill="#8b9cd1"
     id="path180"
     style="fill:#ddb57e;fill-opacity:1" />
  <path
     d="m 201.37434,231.22371 c 0,0 8,10 13,0 5,-10 16,-43 16,-43 0,0 27,-29 36,-20 9,9 -22,25 -22,25 0,0 -11,61 -21,62 -10,1 -25,0 -25,0 l -5,-11 z"
     fill="#f8bdc5"
     id="path182" />
  <path
     d="m 201.37434,231.22371 c 0,0 8,10 13,0 5,-10 16,-43 16,-43 0,0 27,-29 36,-20 9,9 -22,25 -22,25 0,0 -11,61 -21,62 -10,1 -25,0 -25,0 l -5,-11 z"
     opacity="0.05"
     id="path184" />
  <path
     d="m 165.37434,181.22371 c 0,0 18,21 20,28 2,7 24,25 24,25 0,0 -16,12 -13,18 3,6 -21,-20 -21,-20 l -28,-41 z"
     fill="#eb6475"
     id="path186" />
  <path
     d="m 165.37434,181.22371 c 0,0 18,21 20,28 2,7 24,25 24,25 0,0 -16,12 -13,18 3,6 -21,-20 -21,-20 l -28,-41 z"
     opacity="0.1"
     id="path188"
     style="opacity:0.92926;fill:#ffffff;fill-opacity:1" />
  <path
     d="m 177.37434,157.22371 c 0,0 -9,29 -9,40 0,11 -38,-3 -37,-9 1,-6 22,-28 23,-37 1,-9 23,6 23,6 z"
     fill="#f8bdc5"
     id="path190" />
  <path
     d="m 147.37434,177.22371 c 0,0 -35,-9 -40,42 -5,51 4,57 -11.000001,88 -14.999999,31 102.000001,4 102.000001,4 0,0 -6,-7 -25,-4 l -9,-27 c 0,0 -3,-12 14,-12 17,0 9,-35 9,-35 0,0 -9,-30 -14,-33 -5,-3 -14,-21 -26,-23 z"
     opacity="0.1"
     id="path192" />
  <path
     d="m 147.37434,175.22371 c 0,0 -35,-9 -40,42 -5,51 4,57 -11.000001,88 -14.999999,31 102.000001,4 102.000001,4 0,0 -6,-7 -25,-4 l -9,-27 c 0,0 -3,-12 14,-12 17,0 9,-35 9,-35 0,0 -9,-30 -14,-33 -5,-3 -14,-21 -26,-23 z"
     fill="#eb6475"
     id="path194"
     style="fill:#ffffff;fill-opacity:1" />
  <path
     d="m 182.37434,247.22371 c 0,0 73,8 85,6 0,0 53.6,-6.6 40,7 -1,1 -36,9 -40,8 -4,-1 -89,0 -89,0 l -1,-10 z"
     fill="#f8bdc5"
     id="path196" />
  <path
     d="m 126.37434,222.22371 53,48 c 0,0 10,-20 13,-20 3,0 -36,-59 -36,-59 0,0 -10,-12 -16,-6 -6,6 -24,2 -14,37 z"
     opacity="0.1"
     id="path198" />
  <path
     d="m 125.37434,220.22371 53,48 c 0,0 10,-20 13,-20 3,0 -36,-59 -36,-59 0,0 -10,-12 -16,-6 -6,6 -24,2 -14,37 z"
     fill="#eb6475"
     id="path200"
     style="fill:#ffffff;fill-opacity:1" />
  <circle
     cx="168.37433"
     cy="142.22371"
     r="33"
     fill="#f8bdc5"
     id="circle202" />
  <path
     d="m 197.27434,133.93371 c 5.6,2.21 12.46,-0.44 15.76,-5.47 3.3,-5.03 3.2,-11.88 0.42,-17.22 -2.78,-5.34001 -7.92,-9.22001 -13.59,-11.24001 -3.44,-1.220001 -7.27,-1.920001 -9.91,-4.440001 -1.67,-1.59 -2.66,-3.74 -3.91,-5.68 -4.67,-7.280001 -13,-11.580001 -21.47,-13.270001 -8.47,-1.69 -17.23,-1.09 -25.85,-0.49 -3.22,0.23 -7,0.81 -8.46,3.69 -1.09,2.16 -0.38,4.75 -0.52,7.160001 -0.45,7.67 -9,11.92 -16.47,13.760001 -7.47,1.84 -16.129998,3.57 -19.770001,10.33001 -3.26,6.07 -0.93,13.43 0.08,20.25 a 50.54,50.54 0 0 1 -7.28,34.23 c -3.269999,5.13 -7.479999,9.69 -10.069999,15.2 a 29.64,29.64 0 0 0 -1.88,19.7 c 0.49,1.93 1.18,3.89 0.84,5.85 a 10.29,10.29 0 0 1 -2.26,4.35 50.88,50.88 0 0 1 -36.47,19.42 c 1.14,4.29 5.29,7 9.24,9 a 102.69,102.69 0 0 0 21.18,8.08 c 4.93,1.28 10.09,2.19 15.11,1.32 5.019999,-0.87 9.909999,-3.82 11.999999,-8.48 1.2,-2.7 1.38,-5.75 2.44,-8.51 2.390002,-6.19 8.760001,-9.93 12.180001,-15.62 3.27,-5.44 4.54,-6.08 5.37,-12.36 0.83,-6.28 2.66,-13.06 7.82,-16.75 5.4,-3.87 13,-3.13 19,-0.16 6,2.97 9.71,1.81 14.72,6.17 a 122,122 0 0 0 29.21,18.82 c -1,-8.72 -2.61,-18.45 -9.69,-23.64 -2,-1.49 -4.53,-2.63 -5.59,-4.91 -1.69,-3.63 1.2,-8.06 -0.11,-11.85 -1.31,-3.79 -6.29,-5.19 -8.5,-8.63 -1.88,-2.92 -1.37,-6.89 0.39,-9.89 1.76,-3 4.54,-5.22 7.31,-7.32 q 3.69,-2.79 7.48,-5.45 a 26.72,26.72 0 0 0 6.08,-5.3 c 1,-1.37 1.66,-4.37 3.05,-5.34 3.5,-2.42 8.88,3.42 12.12,4.69 z"
     opacity="0.1"
     id="path204" />
  <path
     d="m 196.27434,132.93371 c 5.6,2.21 12.46,-0.44 15.76,-5.47 3.3,-5.03 3.2,-11.88 0.42,-17.22 -2.78,-5.34001 -7.92,-9.22001 -13.59,-11.240011 -3.44,-1.22 -7.27,-1.92 -9.91,-4.44 -1.67,-1.59 -2.66,-3.74 -3.91,-5.68 -4.67,-7.280001 -13,-11.580001 -21.47,-13.270001 -8.47,-1.69 -17.23,-1.09 -25.85,-0.49 -3.22,0.23 -7,0.81 -8.46,3.69 -1.09,2.16 -0.38,4.75 -0.52,7.16 -0.45,7.670001 -9,11.920001 -16.47,13.760001 -7.47,1.840001 -16.130001,3.570001 -19.770001,10.330011 -3.26,6.07 -0.93,13.43 0.08,20.25 a 50.54,50.54 0 0 1 -7.279999,34.23 c -3.27,5.13 -7.48,9.69 -10.07,15.2 a 29.64,29.64 0 0 0 -1.88,19.7 c 0.49,1.93 1.18,3.89 0.84,5.85 a 10.29,10.29 0 0 1 -2.26,4.35 50.88,50.88 0 0 1 -36.47,19.42 c 1.14,4.29 5.29,7 9.24,9 a 102.69,102.69 0 0 0 21.18,8.08 c 4.93,1.28 10.09,2.19 15.11,1.32 5.02,-0.87 9.909999,-3.82 11.999999,-8.48 1.2,-2.7 1.38,-5.75 2.44,-8.51 2.390003,-6.19 8.760001,-9.93 12.180001,-15.62 3.27,-5.44 4.54,-6.08 5.37,-12.36 0.83,-6.28 2.66,-13.06 7.82,-16.75 5.4,-3.87 13,-3.13 19,-0.16 6,2.97 9.71,1.81 14.72,6.17 a 122,122 0 0 0 29.21,18.82 c -1,-8.72 -2.61,-18.45 -9.69,-23.64 -2,-1.49 -4.53,-2.63 -5.59,-4.91 -1.69,-3.63 1.2,-8.06 -0.11,-11.85 -1.31,-3.79 -6.29,-5.19 -8.5,-8.63 -1.88,-2.92 -1.37,-6.89 0.39,-9.89 1.76,-3 4.54,-5.22 7.31,-7.32 q 3.69,-2.79 7.48,-5.45 a 26.72,26.72 0 0 0 6.08,-5.3 c 1,-1.37 1.66,-4.37 3.05,-5.34 3.5,-2.42 8.88,3.42 12.12,4.69 z"
     fill="#916168"
     id="path206" />
  <g
     opacity="0.1"
     id="g212"
     transform="translate(-60.37566,-119.02629)">
    <path
       d="m 475.72,678.56 a 34.56,34.56 0 0 1 1.14,-7.88 l -0.5,0.17 a 34.82,34.82 0 0 0 -0.64,7.71 z"
       transform="translate(-148.11,-121.43)"
       fill="#ffffff"
       id="path208" />
    <path
       d="m 480.86,715.68 c -8,0.47 -33,-11 -38,-17 a 5.33,5.33 0 0 1 -1.16,-2.84 6.28,6.28 0 0 0 1.16,4.84 c 5,6 30,17.47 38,17 8.5,-0.5 37,1 38,-12 a 1.62,1.62 0 0 0 -0.14,-1.06 c -2.29,11.98 -29.57,10.57 -37.86,11.06 z"
       transform="translate(-148.11,-121.43)"
       fill="#ffffff"
       id="path210" />
  </g>
  <rect
     x="311.87436"
     y="176.72371"
     width="1"
     height="41"
     fill="#ffd77c"
     stroke="#ffab50"
     stroke-miterlimit="10"
     stroke-width="0.25"
     id="rect214" />
  <rect
     x="312.87436"
     y="176.72371"
     width="1"
     height="41"
     fill="#ffd77c"
     stroke="#ffab50"
     stroke-miterlimit="10"
     stroke-width="0.25"
     id="rect216" />
  <rect
     x="313.87436"
     y="176.72371"
     width="1"
     height="41"
     fill="#ffd77c"
     stroke="#ffab50"
     stroke-miterlimit="10"
     stroke-width="0.25"
     id="rect218" />
  <rect
     x="314.87436"
     y="176.72371"
     width="1"
     height="41"
     fill="#ffd77c"
     stroke="#ffab50"
     stroke-miterlimit="10"
     stroke-width="0.25"
     id="rect220" />
  <rect
     x="315.87436"
     y="176.72371"
     width="1"
     height="41"
     fill="#ffd77c"
     stroke="#ffab50"
     stroke-miterlimit="10"
     stroke-width="0.25"
     id="rect222" />
  <rect
     x="316.87436"
     y="176.72371"
     width="1"
     height="41"
     fill="#ffd77c"
     stroke="#ffab50"
     stroke-miterlimit="10"
     stroke-width="0.25"
     id="rect224" />
</svg>
