<?xml version="1.0" encoding="UTF-8" standalone="no"?>
<svg
   xmlns:dc="http://purl.org/dc/elements/1.1/"
   xmlns:cc="http://creativecommons.org/ns#"
   xmlns:rdf="http://www.w3.org/1999/02/22-rdf-syntax-ns#"
   xmlns:svg="http://www.w3.org/2000/svg"
   xmlns="http://www.w3.org/2000/svg"
   xmlns:sodipodi="http://sodipodi.sourceforge.net/DTD/sodipodi-0.dtd"
   xmlns:inkscape="http://www.inkscape.org/namespaces/inkscape"
   id="e8a6e089-f0a2-4336-8fc5-733c88302415"
   data-name="Layer 1"
   width="888"
   height="485.489"
   viewBox="0 0 888 485.489"
   version="1.1"
   sodipodi:docname="food.svg"
   inkscape:version="1.0.2 (e86c8708, 2021-01-15)">
  <metadata
     id="metadata249">
    <rdf:RDF>
      <cc:Work
         rdf:about="">
        <dc:format>image/svg+xml</dc:format>
        <dc:type
           rdf:resource="http://purl.org/dc/dcmitype/StillImage" />
      </cc:Work>
    </rdf:RDF>
  </metadata>
  <defs
     id="defs247" />
  <sodipodi:namedview
     pagecolor="#ffffff"
     bordercolor="#666666"
     borderopacity="1"
     objecttolerance="10"
     gridtolerance="10"
     guidetolerance="10"
     inkscape:pageopacity="0"
     inkscape:pageshadow="2"
     inkscape:window-width="1536"
     inkscape:window-height="960"
     id="namedview245"
     showgrid="false"
     inkscape:zoom="0.83886334"
     inkscape:cx="597.53634"
     inkscape:cy="183.72786"
     inkscape:window-x="0"
     inkscape:window-y="0"
     inkscape:window-maximized="0"
     inkscape:current-layer="e8a6e089-f0a2-4336-8fc5-733c88302415" />
  <title
     id="title10">breakfast</title>
  <ellipse
     cx="437.95081"
     cy="242.34505"
     fill="#6c63ff"
     id="circle42"
     rx="235.30426"
     ry="235.299"
     style="stroke-width:0.97331" />
  <path
     d="M 437.95079,414.09062 A 171.74829,171.74444 0 1 1 559.3963,363.78784 170.6266,170.62278 0 0 1 437.95079,414.09062 Z m 0,-332.898895 c -88.86234,0 -161.15695,72.292975 -161.15695,161.153325 0,88.85998 72.29461,161.15334 161.15695,161.15334 88.86197,0 161.15694,-72.29336 161.15694,-161.15334 0,-88.86035 -72.29497,-161.153325 -161.15694,-161.153325 z"
     opacity="0.2"
     id="path44"
     style="stroke-width:0.97331" />
  <ellipse
     cx="437.95081"
     cy="242.34505"
     fill="#3f3d56"
     id="circle46"
     rx="166.45317"
     ry="166.44945"
     style="stroke-width:0.97331" />
  <path
     d="m 314.16318,175.7888 a 21.124959,21.124487 0 1 1 37.64921,-19.17223 l 47.02729,92.34504 a 21.124959,21.124487 0 1 1 -37.64921,19.17223 z"
     fill="#ff6584"
     id="path48"
     style="stroke-width:0.97331" />
  <path
     d="m 319.40853,186.08882 -2.1705,-4.26208 c 10.83224,-8.41646 23.5523,-14.6063 37.6492,-19.17223 l 2.17051,4.26208 c -15.25721,3.1771 -28.23757,9.05673 -37.64921,19.17223 z"
     opacity="0.2"
     id="path50"
     style="stroke-width:0.97331" />
  <path
     d="m 329.53749,205.97852 -2.17051,-4.26207 c 10.83224,-8.41647 23.55231,-14.60631 37.6492,-19.17224 l 2.1705,4.26208 c -15.25719,3.1771 -28.23756,9.05675 -37.64919,19.17223 z"
     opacity="0.2"
     id="path52"
     style="stroke-width:0.97331" />
  <path
     d="m 339.66644,225.86822 -2.17051,-4.26207 c 10.83224,-8.41647 23.55231,-14.60631 37.64921,-19.17224 l 2.1705,4.26208 c -15.2572,3.1771 -28.23756,9.05675 -37.6492,19.17223 z"
     opacity="0.2"
     id="path54"
     style="stroke-width:0.97331" />
  <path
     d="m 349.79539,245.7579 -2.1705,-4.26207 c 10.83224,-8.41647 23.5523,-14.6063 37.6492,-19.17224 l 2.17051,4.26208 c -15.25721,3.17712 -28.23756,9.05674 -37.64921,19.17223 z"
     opacity="0.2"
     id="path56"
     style="stroke-width:0.97331" />
  <path
     d="m 359.92435,265.64762 -2.1705,-4.26207 c 10.83224,-8.41647 23.5523,-14.6063 37.6492,-19.17224 l 2.17051,4.26208 c -15.25722,3.1771 -28.23757,9.05676 -37.64921,19.17223 z"
     opacity="0.2"
     id="path58"
     style="stroke-width:0.97331" />
  <path
     d="m 278.88189,210.35943 a 21.124959,21.124487 0 1 1 37.6492,-19.17224 l 47.02729,92.34504 a 21.124959,21.124487 0 0 1 -37.6492,19.17224 z"
     fill="#ff6584"
     id="path60"
     style="stroke-width:0.97331" />
  <path
     d="m 284.12724,220.65944 -2.1705,-4.26208 c 10.83224,-8.41647 23.5523,-14.6063 37.6492,-19.17223 l 2.17051,4.26207 c -15.25717,3.17712 -28.23757,9.05674 -37.64921,19.17224 z"
     opacity="0.2"
     id="path62"
     style="stroke-width:0.97331" />
  <path
     d="m 294.2562,240.54915 -2.17051,-4.26208 c 10.83223,-8.41647 23.5523,-14.6063 37.6492,-19.17223 l 2.17051,4.26207 c -15.25721,3.17711 -28.23756,9.05676 -37.6492,19.17224 z"
     opacity="0.2"
     id="path64"
     style="stroke-width:0.97331" />
  <path
     d="m 304.38515,260.43885 -2.17051,-4.26208 c 10.83224,-8.41647 23.55231,-14.6063 37.64921,-19.17223 l 2.1705,4.26208 c -15.2572,3.1771 -28.23755,9.05675 -37.6492,19.17223 z"
     opacity="0.2"
     id="path66"
     style="stroke-width:0.97331" />
  <path
     d="m 314.51414,280.32852 -2.17051,-4.26208 c 10.83225,-8.41647 23.55231,-14.6063 37.64921,-19.17223 l 2.17051,4.26208 c -15.25725,3.17713 -28.2376,9.05678 -37.64921,19.17223 z"
     opacity="0.2"
     id="path68"
     style="stroke-width:0.97331" />
  <path
     d="m 324.64306,300.21825 -2.1705,-4.26208 c 10.83224,-8.41647 23.5523,-14.6063 37.6492,-19.17223 l 2.17051,4.26208 c -15.25722,3.1771 -28.23757,9.05675 -37.64921,19.17223 z"
     opacity="0.2"
     id="path70"
     style="stroke-width:0.97331" />
  <path
     d="m 549.17177,247.64117 0.1485,1.3e-4 a 25.197432,25.196868 0 0 0 23.59257,-15.80267 82.248391,82.246549 0 0 0 5.76507,-30.84768 c -0.2642,-44.68488 -36.6185,-81.34363 -81.30088,-81.96173 a 82.483058,82.481212 0 0 0 -34.33572,157.9861 24.981919,24.98136 0 0 0 27.74516,-5.14471 82.204893,82.203053 0 0 1 58.3853,-24.22944 z"
     fill="#e6e6e6"
     id="path72"
     style="stroke-width:0.97331" />
  <ellipse
     cx="506.80188"
     cy="195.43657"
     fill="#f9a825"
     id="circle74"
     rx="27.237795"
     ry="27.237186"
     style="stroke-width:0.97331" />
  <ellipse
     cx="447.60434"
     cy="189.16508"
     fill="#3f3d56"
     id="circle76"
     rx="3.2087376"
     ry="3.2086658"
     style="stroke-width:0.97331" />
  <ellipse
     cx="341.6796"
     cy="192.19144"
     fill="#3f3d56"
     id="circle78"
     rx="3.2087376"
     ry="3.2086658"
     style="stroke-width:0.97331" />
  <ellipse
     cx="464.70544"
     cy="155.91165"
     fill="#3f3d56"
     id="circle80"
     rx="3.2087376"
     ry="3.2086658"
     style="stroke-width:0.97331" />
  <ellipse
     cx="464.61429"
     cy="248.39775"
     fill="#3f3d56"
     id="circle82"
     rx="3.2087376"
     ry="3.2086658"
     style="stroke-width:0.97331" />
  <ellipse
     cx="528.16913"
     cy="149.28467"
     fill="#3f3d56"
     id="circle84"
     rx="3.2087376"
     ry="3.2086658"
     style="stroke-width:0.97331" />
  <ellipse
     cx="320.85928"
     cy="237.04893"
     fill="#3f3d56"
     id="circle86"
     rx="3.2087376"
     ry="3.2086658"
     style="stroke-width:0.97331" />
  <ellipse
     cx="344.31403"
     cy="283.20081"
     fill="#3f3d56"
     id="circle88"
     rx="3.2087376"
     ry="3.2086658"
     style="stroke-width:0.97331" />
  <ellipse
     cx="491.66977"
     cy="289.25351"
     fill="#ff6584"
     id="circle90"
     rx="12.105689"
     ry="12.105418"
     style="stroke-width:0.97331" />
  <path
     d="m 500.74903,290.01012 a 9.079265,9.0790618 0 0 1 -18.15853,0"
     opacity="0.2"
     id="path92"
     style="stroke-width:0.97331" />
  <path
     d="m 482.5905,288.49694 a 9.079265,9.0790618 0 0 1 18.15853,0"
     opacity="0.2"
     id="path94"
     style="stroke-width:0.97331" />
  <ellipse
     cx="487.13016"
     cy="285.09229"
     rx="0.75660133"
     ry="1.1348864"
     fill="#ff6584"
     id="ellipse96"
     style="stroke-width:0.97331" />
  <ellipse
     cx="491.66977"
     cy="283.5791"
     rx="0.75660133"
     ry="1.1348864"
     fill="#ff6584"
     id="ellipse98"
     style="stroke-width:0.97331" />
  <ellipse
     cx="491.66977"
     cy="293.41479"
     rx="0.75660133"
     ry="1.1348864"
     fill="#ff6584"
     id="ellipse100"
     style="stroke-width:0.97331" />
  <ellipse
     cx="496.20938"
     cy="287.36206"
     rx="0.75660133"
     ry="1.1348864"
     fill="#ff6584"
     id="ellipse102"
     style="stroke-width:0.97331" />
  <ellipse
     cx="495.45282"
     cy="295.68454"
     rx="0.75660133"
     ry="1.1348864"
     fill="#ff6584"
     id="ellipse104"
     style="stroke-width:0.97331" />
  <ellipse
     cx="486.3735"
     cy="291.90161"
     rx="0.75660133"
     ry="1.1348864"
     fill="#ff6584"
     id="ellipse106"
     style="stroke-width:0.97331" />
  <ellipse
     cx="515.88116"
     cy="256.72025"
     fill="#ff6584"
     id="circle108"
     rx="12.105689"
     ry="12.105418"
     style="stroke-width:0.97331" />
  <path
     d="m 524.9604,257.47682 a 9.079265,9.0790618 0 0 1 -18.15853,0"
     opacity="0.2"
     id="path110"
     style="stroke-width:0.97331" />
  <path
     d="m 506.80187,255.96365 a 9.079265,9.0790618 0 0 1 18.15853,0"
     opacity="0.2"
     id="path112"
     style="stroke-width:0.97331" />
  <ellipse
     cx="511.34152"
     cy="252.55899"
     rx="0.75660133"
     ry="1.1348864"
     fill="#ff6584"
     id="ellipse114"
     style="stroke-width:0.97331" />
  <ellipse
     cx="515.88116"
     cy="251.04581"
     rx="0.75660133"
     ry="1.1348864"
     fill="#ff6584"
     id="ellipse116"
     style="stroke-width:0.97331" />
  <ellipse
     cx="515.88116"
     cy="260.88147"
     rx="0.75660133"
     ry="1.1348864"
     fill="#ff6584"
     id="ellipse118"
     style="stroke-width:0.97331" />
  <ellipse
     cx="520.42078"
     cy="254.82877"
     rx="0.75660133"
     ry="1.1348864"
     fill="#ff6584"
     id="ellipse120"
     style="stroke-width:0.97331" />
  <ellipse
     cx="519.66418"
     cy="263.15125"
     rx="0.75660133"
     ry="1.1348864"
     fill="#ff6584"
     id="ellipse122"
     style="stroke-width:0.97331" />
  <ellipse
     cx="510.5849"
     cy="259.36829"
     rx="0.75660133"
     ry="1.1348864"
     fill="#ff6584"
     id="ellipse124"
     style="stroke-width:0.97331" />
  <ellipse
     cx="540.09253"
     cy="273.36517"
     fill="#6c63ff"
     id="circle126"
     rx="12.105689"
     ry="12.105418"
     style="stroke-width:0.97331" />
  <path
     d="m 549.17177,274.12179 a 9.079265,9.0790618 0 0 1 -18.15853,0"
     opacity="0.2"
     id="path128"
     style="stroke-width:0.97331" />
  <path
     d="m 531.01324,272.60859 a 9.079265,9.0790618 0 0 1 18.15853,0"
     opacity="0.2"
     id="path130"
     style="stroke-width:0.97331" />
  <ellipse
     cx="535.55286"
     cy="269.20395"
     rx="0.75660133"
     ry="1.1348864"
     fill="#6c63ff"
     id="ellipse132"
     style="stroke-width:0.97331" />
  <ellipse
     cx="540.09253"
     cy="267.69077"
     rx="0.75660133"
     ry="1.1348864"
     fill="#6c63ff"
     id="ellipse134"
     style="stroke-width:0.97331" />
  <ellipse
     cx="540.09253"
     cy="277.5264"
     rx="0.75660133"
     ry="1.1348864"
     fill="#6c63ff"
     id="ellipse136"
     style="stroke-width:0.97331" />
  <ellipse
     cx="544.63214"
     cy="271.47369"
     rx="0.75660133"
     ry="1.1348864"
     fill="#6c63ff"
     id="ellipse138"
     style="stroke-width:0.97331" />
  <ellipse
     cx="543.87555"
     cy="279.79617"
     rx="0.75660133"
     ry="1.1348864"
     fill="#6c63ff"
     id="ellipse140"
     style="stroke-width:0.97331" />
  <ellipse
     cx="534.79626"
     cy="276.01321"
     rx="0.75660133"
     ry="1.1348864"
     fill="#6c63ff"
     id="ellipse142"
     style="stroke-width:0.97331" />
  <ellipse
     cx="479.56409"
     cy="274.87836"
     fill="#6c63ff"
     id="circle144"
     rx="12.105689"
     ry="12.105418"
     style="stroke-width:0.97331" />
  <path
     d="m 488.64334,275.63494 a 9.079265,9.0790618 0 0 1 -18.15853,0"
     opacity="0.2"
     id="path146"
     style="stroke-width:0.97331" />
  <path
     d="m 470.48481,274.12179 a 9.079265,9.0790618 0 0 1 18.15853,0"
     opacity="0.2"
     id="path148"
     style="stroke-width:0.97331" />
  <ellipse
     cx="475.02444"
     cy="270.7171"
     rx="0.75660133"
     ry="1.1348864"
     fill="#6c63ff"
     id="ellipse150"
     style="stroke-width:0.97331" />
  <ellipse
     cx="479.56409"
     cy="269.20395"
     rx="0.75660133"
     ry="1.1348864"
     fill="#6c63ff"
     id="ellipse152"
     style="stroke-width:0.97331" />
  <ellipse
     cx="479.56409"
     cy="279.03958"
     rx="0.75660133"
     ry="1.1348864"
     fill="#6c63ff"
     id="ellipse154"
     style="stroke-width:0.97331" />
  <ellipse
     cx="484.1037"
     cy="272.98688"
     rx="0.75660133"
     ry="1.1348864"
     fill="#6c63ff"
     id="ellipse156"
     style="stroke-width:0.97331" />
  <ellipse
     cx="483.34711"
     cy="281.30936"
     rx="0.75660133"
     ry="1.1348864"
     fill="#6c63ff"
     id="ellipse158"
     style="stroke-width:0.97331" />
  <ellipse
     cx="474.26782"
     cy="277.5264"
     rx="0.75660133"
     ry="1.1348864"
     fill="#6c63ff"
     id="ellipse160"
     style="stroke-width:0.97331" />
  <ellipse
     cx="506.80188"
     cy="280.17447"
     fill="#6c63ff"
     id="circle162"
     rx="12.105689"
     ry="12.105418"
     style="stroke-width:0.97331" />
  <path
     d="m 515.88114,280.93106 a 9.079265,9.0790618 0 1 1 -18.15853,0"
     opacity="0.2"
     id="path164"
     style="stroke-width:0.97331" />
  <path
     d="m 497.72261,279.41788 a 9.079265,9.0790618 0 1 1 18.15853,0"
     opacity="0.2"
     id="path166"
     style="stroke-width:0.97331" />
  <ellipse
     cx="502.26224"
     cy="276.01321"
     rx="0.75660133"
     ry="1.1348864"
     fill="#6c63ff"
     id="ellipse168"
     style="stroke-width:0.97331" />
  <ellipse
     cx="506.80188"
     cy="274.50006"
     rx="0.75660133"
     ry="1.1348864"
     fill="#6c63ff"
     id="ellipse170"
     style="stroke-width:0.97331" />
  <ellipse
     cx="506.80188"
     cy="284.33569"
     rx="0.75660133"
     ry="1.1348864"
     fill="#6c63ff"
     id="ellipse172"
     style="stroke-width:0.97331" />
  <ellipse
     cx="511.34152"
     cy="278.28299"
     rx="0.75660133"
     ry="1.1348864"
     fill="#6c63ff"
     id="ellipse174"
     style="stroke-width:0.97331" />
  <ellipse
     cx="510.5849"
     cy="286.60547"
     rx="0.75660133"
     ry="1.1348864"
     fill="#6c63ff"
     id="ellipse176"
     style="stroke-width:0.97331" />
  <ellipse
     cx="501.50565"
     cy="282.82251"
     rx="0.75660133"
     ry="1.1348864"
     fill="#6c63ff"
     id="ellipse178"
     style="stroke-width:0.97331" />
  <ellipse
     cx="525.71698"
     cy="293.03647"
     fill="#ff6584"
     id="circle180"
     rx="12.105689"
     ry="12.105418"
     style="stroke-width:0.97331" />
  <path
     d="m 534.79627,293.79306 a 9.0792602,9.0790569 0 1 1 -18.15852,0"
     opacity="0.2"
     id="path182"
     style="stroke-width:0.97331" />
  <path
     d="m 516.63775,292.27989 a 9.0792602,9.0790569 0 1 1 18.15852,0"
     opacity="0.2"
     id="path184"
     style="stroke-width:0.97331" />
  <ellipse
     cx="521.17737"
     cy="288.87521"
     rx="0.75660133"
     ry="1.1348864"
     fill="#ff6584"
     id="ellipse186"
     style="stroke-width:0.97331" />
  <ellipse
     cx="525.71698"
     cy="287.36206"
     rx="0.75660133"
     ry="1.1348864"
     fill="#ff6584"
     id="ellipse188"
     style="stroke-width:0.97331" />
  <ellipse
     cx="525.71698"
     cy="297.19772"
     rx="0.75660133"
     ry="1.1348864"
     fill="#ff6584"
     id="ellipse190"
     style="stroke-width:0.97331" />
  <ellipse
     cx="530.25665"
     cy="291.14499"
     rx="0.75660133"
     ry="1.1348864"
     fill="#ff6584"
     id="ellipse192"
     style="stroke-width:0.97331" />
  <ellipse
     cx="529.50006"
     cy="299.4675"
     rx="0.75660133"
     ry="1.1348864"
     fill="#ff6584"
     id="ellipse194"
     style="stroke-width:0.97331" />
  <ellipse
     cx="520.42078"
     cy="295.68454"
     rx="0.75660133"
     ry="1.1348864"
     fill="#ff6584"
     id="ellipse196"
     style="stroke-width:0.97331" />
  <ellipse
     cx="370.0386"
     cy="246.88457"
     fill="#3f3d56"
     id="circle198"
     rx="3.2087376"
     ry="3.2086658"
     style="stroke-width:0.97331" />
  <polygon
     points="388.203,332.857 467.378,354.815 464.345,366.08 385.17,344.123 "
     fill="#f9a825"
     id="polygon200"
     transform="matrix(0.97332102,0,0,0.97329923,5.301731,7.0460516)" />
  <path
     d="m 445.9612,359.68689 a 212.44511,212.44035 0 0 1 -79.88792,0 V 348.3204 a 244.2951,244.28963 0 0 0 79.88792,0 z"
     fill="#f9a825"
     id="path202"
     style="stroke-width:0.97331" />
  <path
     d="m 454.17398,325.58744 a 212.44511,212.44035 0 0 1 -79.88792,0 v -11.36649 a 244.29563,244.29017 0 0 0 79.88792,0 z"
     fill="#f9a825"
     id="path204"
     style="stroke-width:0.97331" />
  <path
     d="m 481.79882,339.22722 a 212.44515,212.4404 0 0 1 -79.88793,0 v -11.36648 a 244.29569,244.29022 0 0 0 79.88793,0 z"
     fill="#f9a825"
     id="path206"
     style="stroke-width:0.97331" />
  <path
     d="m 488.51832,352.10923 a 212.44471,212.43995 0 0 1 -79.88792,0 v -11.36648 a 244.29563,244.29017 0 0 0 79.88792,0 z"
     fill="#f9a825"
     id="path208"
     style="stroke-width:0.97331" />
  <polygon
     points="437.676,373.904 518.652,360.302 520.531,371.824 439.554,385.426 "
     fill="#f9a825"
     id="polygon210"
     transform="matrix(0.97332102,0,0,0.97329923,5.301731,7.0460516)" />
  <path
     d="m 500.17215,370.39935 a 214.10143,214.09663 0 0 1 -72.59036,33.85562 l -4.67629,-10.32818 a 246.20581,246.20029 0 0 0 72.59035,-33.85562 z"
     fill="#f9a825"
     id="path212"
     style="stroke-width:0.97331" />
  <path
     d="m 493.60585,335.93432 a 214.10134,214.09654 0 0 1 -72.59035,33.85562 l -4.67628,-10.32818 a 246.20581,246.20029 0 0 0 72.59035,-33.85562 z"
     fill="#f9a825"
     id="path214"
     style="stroke-width:0.97331" />
  <path
     d="m 524.31873,336.62105 a 214.1012,214.09641 0 0 1 -72.59036,33.85562 l -4.67628,-10.32817 a 246.20614,246.20063 0 0 0 72.59036,-33.85563 z"
     fill="#f9a825"
     id="path216"
     style="stroke-width:0.97331" />
  <path
     d="m 535.72424,345.47866 a 214.10134,214.09654 0 0 1 -72.59035,33.85562 l -4.67628,-10.32818 a 246.20581,246.20029 0 0 0 72.59035,-33.85562 z"
     fill="#f9a825"
     id="path218"
     style="stroke-width:0.97331" />
  <rect
     x="436.43759"
     y="323.30002"
     width="3.7830262"
     height="3.7829416"
     fill="#00bf71"
     id="rect220"
     style="stroke-width:0.97331" />
  <rect
     x="447.78665"
     y="389.1232"
     width="3.7830262"
     height="3.7829416"
     fill="#00bf71"
     id="rect222"
     style="stroke-width:0.97331" />
  <rect
     x="387.25824"
     y="323.30002"
     width="3.7830262"
     height="3.7829416"
     fill="#00bf71"
     id="rect224"
     style="stroke-width:0.97331" />
  <rect
     x="475.02444"
     y="370.2085"
     width="3.7830262"
     height="3.7829416"
     fill="#00bf71"
     id="rect226"
     style="stroke-width:0.97331" />
  <rect
     x="477.29425"
     y="348.26746"
     width="3.7830262"
     height="3.7829416"
     fill="#00bf71"
     id="rect228"
     style="stroke-width:0.97331" />
  <rect
     x="530.87878"
     y="44.570087"
     width="5.2962012"
     height="3.0263786"
     transform="matrix(0.82752056,0.56143541,-0.56145262,0.82750888,0,0)"
     fill="#00bf71"
     id="rect230"
     style="stroke-width:0.97331" />
  <rect
     x="572.49121"
     y="26.394787"
     width="5.2962012"
     height="3.0263786"
     transform="matrix(0.82752056,0.56143541,-0.56145262,0.82750888,0,0)"
     fill="#00bf71"
     id="rect232"
     style="stroke-width:0.97331" />
  <rect
     x="535.48322"
     y="68.875053"
     width="5.2962012"
     height="3.0263786"
     transform="matrix(0.82752056,0.56143541,-0.56145262,0.82750888,0,0)"
     fill="#00bf71"
     id="rect234"
     style="stroke-width:0.97331" />
  <rect
     x="47.819565"
     y="-563.61536"
     width="5.2961578"
     height="3.0264037"
     transform="matrix(-0.56145262,0.82750888,-0.82752056,-0.56143541,0,0)"
     fill="#00bf71"
     id="rect236"
     style="stroke-width:0.97331" />
  <rect
     x="40.733063"
     y="-583.49347"
     width="5.2961578"
     height="3.0264037"
     transform="matrix(-0.56145262,0.82750888,-0.82752056,-0.56143541,0,0)"
     fill="#00bf71"
     id="rect238"
     style="stroke-width:0.97331" />
  <rect
     x="-4.88097"
     y="-618.38135"
     width="5.2961249"
     height="3.0263848"
     transform="matrix(-0.56145207,0.82750926,-0.82752094,-0.56143485,0,0)"
     fill="#00bf71"
     id="rect240"
     style="stroke-width:0.973304" />
  <path
     style="fill:#000000;fill-opacity:1;stroke:#000000;stroke-width:9.17979;stroke-opacity:1"
     d="M 407.1199,474.93905 C 366.75904,469.43729 329.42978,454.08892 296.50013,429.45639 284.67098,420.60778 264.46411,400.91044 254.95582,388.95963 211.29053,334.07751 194.07832,263.04482 208.08186,195.51643 234.53131,67.970856 358.97904,-13.814736 486.1752,12.75675 c 81.13909,16.950088 147.91398,76.5428 174.33794,155.5865 28.61108,85.58615 5.18285,180.22688 -60.13427,242.91841 -36.7965,35.31739 -82.22028,57.22024 -132.07234,63.68386 -16.4188,2.12878 -45.54496,2.12571 -61.18663,-0.007 z m 65.59276,-63.85626 c 23.10569,-4.98978 46.70794,-15.33617 65.60155,-28.75742 12.114,-8.60527 30.71146,-27.20232 39.31695,-39.31606 13.30758,-18.73278 24.03749,-43.11968 29.12341,-66.19167 2.89058,-13.11292 3.6147,-46.30592 1.325,-60.73592 C 599.39345,161.3409 565.93599,114.82347 517.251,89.79864 501.75106,81.831436 488.00894,76.938405 470.96558,73.318218 c -17.43741,-3.703887 -48.4462,-3.701627 -65.86313,0.0049 -53.37676,11.358897 -96.09427,43.378962 -119.89646,89.871642 -21.6757,42.33904 -25.25289,89.95967 -10.13952,134.98061 10.46078,31.1614 32.3108,61.19419 59.22073,81.39869 24.60006,18.47022 50.47934,28.93924 84.10342,34.02257 8.72034,1.31836 44.17419,-0.32226 54.32204,-2.51374 z"
     id="path251" />
</svg>
